<svg viewBox="0 0 256 256" fill="none" xmlns="http://www.w3.org/2000/svg">
<rect width="256" height="128" fill="#005BBB"/>
<rect y="128" width="256" height="128" fill="#FFD500"/>
<path d="M82.3633 47.9238H70.9082V44.4082C70.9082 42.7676 70.7617 41.7227 70.4688 41.2734C70.1758 40.8242 69.6875 40.5996 69.0039 40.5996C68.2617 40.5996 67.6953 40.9023 67.3047 41.5078C66.9336 42.1133 66.748 43.0312 66.748 44.2617C66.748 45.8438 66.9629 47.0352 67.3926 47.8359C67.8027 48.6367 68.9648 49.6035 70.8789 50.7363C76.3672 53.998 79.8242 56.6738 81.25 58.7637C82.6758 60.8535 83.3887 64.2227 83.3887 68.8711C83.3887 72.25 82.9883 74.7402 82.1875 76.3418C81.4062 77.9434 79.8828 79.291 77.6172 80.3848C75.3516 81.459 72.7148 81.9961 69.707 81.9961C66.4062 81.9961 63.584 81.3711 61.2402 80.1211C58.916 78.8711 57.3926 77.2793 56.6699 75.3457C55.9473 73.4121 55.5859 70.668 55.5859 67.1133V64.0078H67.041V69.7793C67.041 71.5566 67.1973 72.6992 67.5098 73.207C67.8418 73.7148 68.418 73.9688 69.2383 73.9688C70.0586 73.9688 70.6641 73.6465 71.0547 73.002C71.4648 72.3574 71.6699 71.4004 71.6699 70.1309C71.6699 67.3379 71.2891 65.5117 70.5273 64.6523C69.7461 63.793 67.8223 62.3574 64.7559 60.3457C61.6895 58.3145 59.6582 56.8398 58.6621 55.9219C57.666 55.0039 56.8359 53.7344 56.1719 52.1133C55.5273 50.4922 55.2051 48.4219 55.2051 45.9023C55.2051 42.2695 55.6641 39.6133 56.582 37.9336C57.5195 36.2539 59.0234 34.9453 61.0938 34.0078C63.1641 33.0508 65.6641 32.5723 68.5938 32.5723C71.7969 32.5723 74.5215 33.0898 76.7676 34.125C79.0332 35.1602 80.5273 36.4688 81.25 38.0508C81.9922 39.6133 82.3633 42.2793 82.3633 46.0488V47.9238ZM112.129 33.5684V43.0605H104.805V81H92.4707V43.0605H85.1758V33.5684H112.129ZM133.838 33.5684L140.898 81H128.271L127.656 72.4746H123.232L122.5 81H109.727L115.996 33.5684H133.838ZM127.305 64.0664C126.68 58.6953 126.055 52.0645 125.43 44.1738C124.18 53.2363 123.398 59.8672 123.086 64.0664H127.305ZM170.547 33.5684V81H159.736L153.32 59.4375V81H143.008V33.5684H153.32L160.234 54.9258V33.5684H170.547ZM175.527 33.5684H184.756C190.713 33.5684 194.736 33.8418 196.826 34.3887C198.936 34.9355 200.537 35.834 201.631 37.084C202.725 38.334 203.408 39.7305 203.682 41.2734C203.955 42.7969 204.092 45.8047 204.092 50.2969V66.9082C204.092 71.166 203.887 74.0176 203.477 75.4629C203.086 76.8887 202.393 78.0117 201.396 78.832C200.4 79.6328 199.17 80.1992 197.705 80.5312C196.24 80.8438 194.033 81 191.084 81H175.527V33.5684ZM187.861 41.6836V72.8848C189.639 72.8848 190.732 72.5332 191.143 71.8301C191.553 71.1074 191.758 69.1641 191.758 66V47.5723C191.758 45.4238 191.689 44.0469 191.553 43.4414C191.416 42.8359 191.104 42.3965 190.615 42.123C190.127 41.8301 189.209 41.6836 187.861 41.6836ZM115.293 106.568L109.814 154H94.4043C92.998 146.715 91.7578 138.434 90.6836 129.156C90.1953 133.121 89.0527 141.402 87.2559 154H71.9336L66.4258 106.568H78.4082L79.668 123.121L80.957 139.088C81.4062 130.826 82.5391 119.986 84.3555 106.568H97.1875C97.3633 107.955 97.8125 113.17 98.5352 122.213L99.8828 140.23C100.566 128.766 101.709 117.545 103.311 106.568H115.293ZM130.088 106.568V154H117.754V106.568H130.088ZM159.883 106.568V116.061H152.559V154H140.225V116.061H132.93V106.568H159.883ZM191.055 106.568V154H178.721V134.078H175.029V154H162.695V106.568H175.029V123.531H178.721V106.568H191.055ZM59.1895 179.568V211.268C59.1895 214.861 59.0723 217.391 58.8379 218.855C58.6035 220.301 57.9102 221.795 56.7578 223.338C55.6055 224.861 54.082 226.023 52.1875 226.824C50.3125 227.605 48.0957 227.996 45.5371 227.996C42.7051 227.996 40.2051 227.527 38.0371 226.59C35.8691 225.652 34.248 224.432 33.1738 222.928C32.0996 221.424 31.4648 219.842 31.2695 218.182C31.0742 216.502 30.9766 212.986 30.9766 207.635V179.568H43.3105V215.135C43.3105 217.205 43.418 218.533 43.6328 219.119C43.8672 219.686 44.3262 219.969 45.0098 219.969C45.791 219.969 46.2891 219.656 46.5039 219.031C46.7383 218.387 46.8555 216.883 46.8555 214.52V179.568H59.1895ZM93.3496 179.568L86.2891 200.984L94.0234 227H81.2793L76.2988 206.668V227H63.9648V179.568H76.2988V197.996L81.7773 179.568H93.3496ZM96.1914 179.568H104.922C110.742 179.568 114.678 179.793 116.729 180.242C118.799 180.691 120.479 181.844 121.768 183.699C123.076 185.535 123.73 188.475 123.73 192.518C123.73 196.209 123.271 198.689 122.354 199.959C121.436 201.229 119.629 201.99 116.934 202.244C119.375 202.85 121.016 203.66 121.855 204.676C122.695 205.691 123.213 206.629 123.408 207.488C123.623 208.328 123.73 210.662 123.73 214.49V227H112.275V211.238C112.275 208.699 112.07 207.127 111.66 206.521C111.27 205.916 110.225 205.613 108.525 205.613V227H96.1914V179.568ZM108.525 187.684V198.23C109.912 198.23 110.879 198.045 111.426 197.674C111.992 197.283 112.275 196.043 112.275 193.953V191.346C112.275 189.842 112.002 188.855 111.455 188.387C110.928 187.918 109.951 187.684 108.525 187.684ZM149.834 179.568L156.895 227H144.268L143.652 218.475H139.229L138.496 227H125.723L131.992 179.568H149.834ZM143.301 210.066C142.676 204.695 142.051 198.064 141.426 190.174C140.176 199.236 139.395 205.867 139.082 210.066H143.301ZM171.338 179.568V227H159.004V179.568H171.338ZM203.828 179.568V227H193.018L186.602 205.438V227H176.289V179.568H186.602L193.516 200.926V179.568H203.828ZM208.809 179.568H229.375V189.061H221.143V198.055H228.848V207.078H221.143V217.508H230.195V227H208.809V179.568Z" fill="white"/>
</svg>
